<svg width="200" height="43" viewBox="0 0 200 43" fill="none" xmlns="http://www.w3.org/2000/svg">
<line x1="62" y1="42" x2="137" y2="42" stroke="#6828DC" stroke-width="2"/>
<path d="M85.653 23V0.344H100.277V3.992H89.685V9.944H99.669V13.592H89.685V23H85.653ZM107.964 0.344V23H103.932V0.344H107.964ZM116.966 23H112.934V0.344H118.278L129.254 17.176H129.318V0.344H133.35V23H128.23L117.03 5.624H116.966V23ZM138.403 0.344H147.427C153.283 0.344 158.851 4.056 158.851 11.672C158.851 19.704 151.875 23 146.947 23H138.403V0.344ZM142.435 19.352H145.603C150.435 19.352 154.627 17.176 154.627 11.672C154.627 6.168 151.075 3.992 146.147 3.992H142.435V19.352ZM162.684 23V0.344H177.692V3.992H166.716V9.56H177.116V13.208H166.716V19.352H178.268V23H162.684ZM186.279 23H182.247V0.344H190.247C194.599 0.344 198.567 1.88 198.567 6.84C198.567 10.232 196.519 12.536 193.319 12.984L199.335 23H194.471L189.223 13.4H186.279V23ZM186.279 3.8V9.944H189.607C191.911 9.944 194.343 9.624 194.343 6.808C194.343 4.216 192.007 3.8 189.895 3.8H186.279Z" fill="#24213B"/>
<path d="M6.88813 23H2.85613V0.344H10.6321C13.5441 0.344 18.8241 1.176 18.8241 6.84C18.8241 11.576 16.0401 13.624 9.99213 13.624H6.88813V23ZM6.88813 3.8V10.168H9.51213C11.8801 10.168 14.6001 9.912 14.6001 6.968C14.6001 4.824 13.0321 3.8 9.89613 3.8H6.88813ZM22.0276 23H17.5156L27.3716 0.344H30.8596L40.6196 23H36.0116L33.8996 17.816H24.0756L22.0276 23ZM29.0036 5.144L25.4516 14.36H32.4916L29.0036 5.144ZM47.1694 23H43.1374V0.344H51.1374C55.4894 0.344 59.4574 1.88 59.4574 6.84C59.4574 10.232 57.4094 12.536 54.2094 12.984L60.2254 23H55.3614L50.1134 13.4H47.1694V23ZM47.1694 3.8V9.944H50.4974C52.8014 9.944 55.2334 9.624 55.2334 6.808C55.2334 4.216 52.8974 3.8 50.7854 3.8H47.1694ZM63.2936 23V0.344H67.3256V9.944H67.5176L76.8936 0.344H82.3336L71.7416 10.808L83.0376 23H77.3736L67.5496 11.864H67.3256V23H63.2936Z" fill="#6828DC"/>
</svg>
