<svg width="16" height="16" viewBox="0 0 16 16" fill="none" xmlns="http://www.w3.org/2000/svg">
<path d="M0.965767 14.2108H1.75605C2.25148 14.2108 2.63977 13.8291 2.63977 13.3336V12.2088C4.12662 12.3025 6.27605 12.3693 7.99691 12.3693C9.72462 12.3693 11.8741 12.3025 13.3609 12.2088V13.3336C13.3609 13.8291 13.7426 14.2108 14.2446 14.2108H15.0349C15.5372 14.2108 15.9255 13.8291 15.9255 13.3336V9.46992C15.9255 8.34478 15.6978 7.70849 15.0752 6.90506L14.5126 6.17506C14.2649 4.96992 13.8229 3.70421 13.5886 3.20878C13.2335 2.45192 12.5372 2.00306 11.6466 1.88278C11.1981 1.82906 9.73148 1.78906 7.99691 1.78906C6.26948 1.78906 4.80262 1.83592 4.35405 1.88278C3.46348 1.98992 2.7672 2.45192 2.41234 3.20849C2.17805 3.70421 1.73577 4.96992 1.48805 6.17506L0.925481 6.90506C0.302624 7.70878 0.0751953 8.34478 0.0751953 9.46992V13.3336C0.0751953 13.8291 0.463767 14.2108 0.965767 14.2108ZM2.84091 5.61935C3.00148 4.88278 3.32291 3.92506 3.54377 3.53649C3.72462 3.22221 3.91891 3.08792 4.28062 3.04135C4.7892 2.96763 5.92777 2.92735 7.99691 2.92735C10.0729 2.92735 11.2112 2.95421 11.7203 3.04135C12.0752 3.09478 12.2692 3.22192 12.4569 3.53678C12.6846 3.91849 12.9858 4.88249 13.1598 5.61935C13.2203 5.86706 13.1198 5.96078 12.8586 5.94078C11.7472 5.87392 10.4212 5.80021 7.99691 5.80021C5.57977 5.80021 4.25377 5.87392 3.14205 5.94078C2.88091 5.96078 2.7872 5.86706 2.84062 5.61935M3.11491 10.6351C2.47891 10.6351 2.00348 10.1528 2.00348 9.52335C2.00348 8.88706 2.47891 8.41192 3.11491 8.41192C3.7512 8.41192 4.22662 8.88706 4.22662 9.52335C4.22662 10.1528 3.7512 10.6348 3.1152 10.6348M12.8855 10.6348C12.2492 10.6348 11.7741 10.1525 11.7741 9.52306C11.7741 8.88678 12.2492 8.41163 12.8855 8.41163C13.5149 8.41163 13.9969 8.88678 13.9969 9.52306C13.9969 10.1525 13.5149 10.6348 12.8855 10.6348ZM6.22262 10.3265C5.75377 10.3265 5.42548 9.99163 5.42548 9.52278C5.42548 9.04735 5.75377 8.71935 6.22262 8.71935H9.77834C10.2469 8.71935 10.5752 9.04735 10.5752 9.52278C10.5752 9.99135 10.2469 10.3265 9.77805 10.3265H6.22262Z" fill="#1D1B20"/>
</svg>
