<svg width="16" height="16" viewBox="0 0 16 16" fill="none" xmlns="http://www.w3.org/2000/svg">
<g clip-path="url(#clip0_3906_1859)">
<path d="M4.8 16C4.661 16 4.523 15.964 4.398 15.892C4.151 15.749 4 15.485 4 15.2V12.8H3.2C1.435 12.8 0 11.364 0 9.6V3.2C0 1.436 1.435 0 3.2 0H12.8C14.565 0 16 1.436 16 3.2V9.6C16 11.364 14.565 12.8 12.8 12.8H10.612L5.196 15.895C5.073 15.965 4.936 16 4.799 16H4.8ZM3.2 1.6C2.318 1.6 1.6 2.318 1.6 3.2V9.6C1.6 10.482 2.318 11.2 3.2 11.2H4.8C5.242 11.2 5.6 11.558 5.6 12V13.822L10.003 11.306C10.124 11.237 10.261 11.201 10.4 11.201H12.8C13.682 11.201 14.4 10.483 14.4 9.601V3.201C14.4 2.319 13.682 1.601 12.8 1.601H3.2V1.6Z" fill="#1D1B20"/>
<path d="M6.3998 6.39961C6.3998 6.84161 6.0418 7.19961 5.5998 7.19961C5.1578 7.19961 4.7998 6.84161 4.7998 6.39961C4.7998 5.95761 5.1578 5.59961 5.5998 5.59961C6.0418 5.59961 6.3998 5.95761 6.3998 6.39961Z" fill="#1D1B20"/>
<path d="M8.8002 6.39961C8.8002 6.84161 8.4422 7.19961 8.0002 7.19961C7.5582 7.19961 7.2002 6.84161 7.2002 6.39961C7.2002 5.95761 7.5582 5.59961 8.0002 5.59961C8.4422 5.59961 8.8002 5.95761 8.8002 6.39961Z" fill="#1D1B20"/>
<path d="M11.1996 6.39961C11.1996 6.84161 10.8416 7.19961 10.3996 7.19961C9.95761 7.19961 9.59961 6.84161 9.59961 6.39961C9.59961 5.95761 9.95761 5.59961 10.3996 5.59961C10.8416 5.59961 11.1996 5.95761 11.1996 6.39961Z" fill="#1D1B20"/>
</g>
<defs>
<clipPath id="clip0_3906_1859">
<rect width="16" height="16" fill="white"/>
</clipPath>
</defs>
</svg>
