<svg width="75" height="80" viewBox="0 0 75 80" fill="none" xmlns="http://www.w3.org/2000/svg">
<path d="M28.9 0C28.4757 0 28.0687 0.168571 27.7686 0.468629C27.4686 0.768687 27.3 1.17565 27.3 1.6V4.8C27.3 5.22435 27.4686 5.63131 27.7686 5.93137C28.0687 6.23143 28.4757 6.4 28.9 6.4H31.3V10.636C13.9912 12.628 0.5 27.3672 0.5 45.2C0.5 64.3864 16.1136 80 35.3 80C54.4864 80 70.1 64.3864 70.1 45.2C70.1055 38.633 68.2408 32.2003 64.724 26.6544L68.1144 23.9096L69.6248 25.7752C69.757 25.9386 69.92 26.0743 70.1046 26.1747C70.2892 26.275 70.4918 26.3381 70.7008 26.3601C70.9098 26.3822 71.121 26.3629 71.3225 26.3033C71.524 26.2437 71.7118 26.145 71.8752 26.0128L74.3632 23.9984C74.6926 23.7312 74.9024 23.3441 74.9465 22.9223C74.9906 22.5005 74.8654 22.0784 74.5984 21.7488L66.544 11.8C66.4118 11.6366 66.2488 11.5009 66.0642 11.4005C65.8796 11.3002 65.677 11.2371 65.468 11.2151C65.259 11.193 65.0478 11.2123 64.8463 11.2719C64.6448 11.3315 64.457 11.4302 64.2936 11.5624L61.8056 13.5768C61.4762 13.844 61.2665 14.2311 61.2224 14.6529C61.1782 15.0747 61.3034 15.4968 61.5704 15.8264L63.0816 17.692L59.7056 20.4232C54.316 15.1128 47.2064 11.548 39.3 10.6376V6.4H41.7C42.1243 6.4 42.5313 6.23143 42.8314 5.93137C43.1314 5.63131 43.3 5.22435 43.3 4.8V1.6C43.3 1.17565 43.1314 0.768687 42.8314 0.468629C42.5313 0.168571 42.1243 0 41.7 0L28.9 0ZM35.3 16C51.46 16 64.5 29.04 64.5 45.2C64.5 61.36 51.46 74.4 35.3 74.4C19.14 74.4 6.1 61.36 6.1 45.2C6.1 29.04 19.14 16 35.3 16ZM35.3016 21.9544L35.3 45.2L53.8872 59.1576C56.4799 55.7048 58.0597 51.5981 58.4494 47.2979C58.8391 42.9976 58.0234 38.6738 56.0936 34.8112C54.1639 30.9487 51.1965 27.7 47.5241 25.4293C43.8516 23.1586 39.6193 21.9548 35.3016 21.9544Z" fill="#6828DC"/>
</svg>
