<svg width="16" height="14" viewBox="0 0 16 14" fill="none" xmlns="http://www.w3.org/2000/svg">
<path d="M15.3301 4.18957L8.81012 0.55957C8.36012 0.30957 7.82012 0.30957 7.37012 0.55957L0.850123 4.18957C0.550123 4.34957 0.400123 4.68957 0.470123 5.01957C0.550123 5.34957 0.830123 5.58957 1.17012 5.61957L1.98012 5.66957V11.8596C1.98012 12.6896 2.65012 13.3596 3.47012 13.3596H12.7001C13.5301 13.3596 14.2001 12.6896 14.2001 11.8596V5.66957L15.0101 5.61957C15.3501 5.58957 15.6301 5.34957 15.7101 5.01957C15.7801 4.68957 15.6301 4.34957 15.3301 4.18957ZM12.7001 11.8296L9.62012 11.8396V9.91957C9.62012 9.28957 9.10012 8.77957 8.47012 8.77957H7.71012C7.08012 8.77957 6.56012 9.28957 6.56012 9.91957V11.8496L3.51012 11.8596V4.95957C3.51012 4.79957 3.46012 4.64957 3.37012 4.51957L8.07012 1.89957L12.8001 4.52957C12.7201 4.64957 12.6701 4.79957 12.6701 4.95957L12.7001 11.8296Z" fill="#6828DC"/>
</svg>
