<svg width="20" height="20" viewBox="0 0 20 20" fill="none" xmlns="http://www.w3.org/2000/svg">
<path d="M15.7251 2.4248H4.4251C2.3501 2.4248 0.662598 4.1123 0.662598 6.1873V13.7248C0.662598 15.7998 2.3501 17.4873 4.4251 17.4873H15.7251C17.8001 17.4873 19.5001 15.7998 19.5001 13.7248V6.1873C19.5001 4.1123 17.8001 2.4248 15.7251 2.4248ZM4.4251 4.3123H15.7251C16.1376 4.3123 16.5126 4.4498 16.8251 4.6748L10.0751 9.7248L3.3376 4.6623C3.6376 4.4373 4.0126 4.3123 4.4251 4.3123ZM17.6126 13.7248C17.6126 13.9373 17.5751 14.1498 17.5001 14.3373L14.4126 12.0248C13.9876 11.7248 13.4001 11.7998 13.0876 12.2248C12.7751 12.6373 12.8626 13.2248 13.2751 13.5373L16.0126 15.5873C15.9251 15.5998 15.8251 15.6123 15.7251 15.6123H4.4251C4.3251 15.6123 4.2376 15.5998 4.1501 15.5873L6.8751 13.5373C7.2876 13.2248 7.3751 12.6373 7.0626 12.2248C6.7501 11.7998 6.1626 11.7123 5.7501 12.0248L2.6626 14.3373C2.5876 14.1498 2.5501 13.9373 2.5501 13.7248V6.4248L9.5126 11.6498C9.6751 11.7748 9.8751 11.8373 10.0751 11.8373C10.2751 11.8373 10.4751 11.7748 10.6376 11.6498L17.6126 6.4248V13.7248Z" fill="#24213B"/>
</svg>
