<svg width="20" height="20" viewBox="0 0 20 20" fill="none" xmlns="http://www.w3.org/2000/svg">
<g clip-path="url(#clip0_341_2136)">
<path d="M13.9423 20C12.5348 20 11.1285 19.4637 10.0573 18.3925L1.9223 9.57625C-0.19395 7.46125 -0.19395 3.975 1.94855 1.83125L3.24355 0.53625C3.5898 0.19 4.0498 0 4.53855 0C4.5398 0 4.5398 0 4.5398 0C5.02855 0 5.48855 0.19125 5.83355 0.5375L7.12855 1.83125C8.55605 3.26 8.55605 5.58375 7.12855 7.0125L7.09855 7.0425L12.6773 13.1788C14.1061 11.7825 16.4073 11.79 17.8273 13.21L19.1223 14.505C19.4686 14.8512 19.6586 15.3113 19.6586 15.8025C19.6586 16.2938 19.4673 16.7512 19.121 17.0963L17.8273 18.3913C16.7561 19.4625 15.3486 19.9987 13.9411 19.9987L13.9423 20ZM4.53855 1.83125L3.24355 3.12625C1.8148 4.555 1.8148 6.87875 3.24355 8.3075L11.3786 17.1238C12.7811 18.5263 15.1061 18.5238 16.5336 17.0975L17.8286 15.8012L16.5336 14.5062C15.8411 13.8137 14.6348 13.8137 13.9423 14.5062L13.2948 15.1538C13.1173 15.3313 12.8598 15.4138 12.6261 15.4225C12.376 15.4163 12.1386 15.3075 11.9698 15.1225L5.15605 7.62875C4.8273 7.26625 4.8398 6.71 5.18605 6.36375L5.8348 5.71625C6.54855 5.0025 6.54855 3.84125 5.8348 3.12625L4.53855 1.83125Z" fill="#24213B"/>
<path d="M15.0815 9.84881C14.5752 9.84881 14.1652 9.43881 14.1652 8.93256C14.1652 7.67006 13.139 6.64256 11.8752 6.64256C11.369 6.64256 10.959 6.23256 10.959 5.72631C10.959 5.22006 11.369 4.81006 11.8752 4.81006C14.1477 4.81006 15.9965 6.65881 15.9965 8.93131C15.9965 9.43756 15.5865 9.84756 15.0802 9.84756L15.0815 9.84881Z" fill="#24213B"/>
<path d="M18.7452 9.84898C18.239 9.84898 17.829 9.43898 17.829 8.93273C17.829 5.65023 15.1577 2.97898 11.8752 2.97898C11.369 2.97898 10.959 2.56898 10.959 2.06273C10.959 1.55648 11.369 1.14648 11.8752 1.14648C16.1677 1.14648 19.6602 4.63898 19.6602 8.93148C19.6602 9.43773 19.2502 9.84773 18.744 9.84773L18.7452 9.84898Z" fill="#24213B"/>
</g>
<defs>
<clipPath id="clip0_341_2136">
<rect width="20" height="20" fill="white"/>
</clipPath>
</defs>
</svg>
