<svg width="20" height="20" viewBox="0 0 20 20" fill="none" xmlns="http://www.w3.org/2000/svg">
<g clip-path="url(#clip0_551_3536)">
<path d="M19.3838 7.5H13.7125C13.025 7.5 12.8588 7.11 13.3588 6.6125L15.2838 4.69625C13.8788 3.29625 11.98 2.50875 10 2.5V0C12.6462 0.00625 15.1838 1.0575 17.0588 2.925L19.1175 0.875C19.605 0.39125 20 0.5625 20 1.2375V6.88375C19.995 7.22125 19.7225 7.49625 19.3838 7.5ZM0 10C0 4.4775 4.4775 0 10 0V2.5C5.8575 2.5 2.5 5.8575 2.5 10C2.5 14.1425 5.8575 17.5 10 17.5V20C4.4775 20 0 15.5225 0 10ZM17.5125 10.9563C17.625 10.3688 18.155 9.96 18.75 10C19.13 10 19.4912 10.1712 19.7288 10.4675C19.9662 10.7637 20.0575 11.155 19.9738 11.525C19.205 16.41 14.9925 20.0075 10.0487 20H10V17.5H10.0437C13.825 17.5063 17.0225 14.705 17.5138 10.9563H17.5125Z" fill="#24213B"/>
</g>
<defs>
<clipPath id="clip0_551_3536">
<rect width="20" height="20" fill="white"/>
</clipPath>
</defs>
</svg>
