<svg width="16" height="16" viewBox="0 0 16 16" fill="none" xmlns="http://www.w3.org/2000/svg">
<g clip-path="url(#clip0_3906_1854)">
<path d="M13.5996 14.8002H2.39961C1.95761 14.8002 1.59961 14.4422 1.59961 14.0002C1.59961 13.5582 1.95761 13.2002 2.39961 13.2002H13.5996C14.0416 13.2002 14.3996 13.5582 14.3996 14.0002C14.3996 14.4422 14.0416 14.8002 13.5996 14.8002Z" fill="#1D1B20"/>
<path d="M3.20039 14.0004C2.75839 14.0004 2.40039 13.6424 2.40039 13.2004V9.20039C2.40039 8.75839 2.75839 8.40039 3.20039 8.40039C3.64239 8.40039 4.00039 8.75839 4.00039 9.20039V13.2004C4.00039 13.6424 3.64239 14.0004 3.20039 14.0004Z" fill="#1D1B20"/>
<path d="M12.8 14.0004C12.358 14.0004 12 13.6424 12 13.2004V9.20039C12 8.75839 12.358 8.40039 12.8 8.40039C13.242 8.40039 13.6 8.75839 13.6 9.20039V13.2004C13.6 13.6424 13.242 14.0004 12.8 14.0004Z" fill="#1D1B20"/>
<path d="M12.8 7.17319C12.236 7.17319 11.671 7.00919 11.179 6.68019C10.688 6.35319 10.114 6.3522 9.67 6.6482C8.638 7.3362 7.365 7.33719 6.379 6.68019C5.887 6.35319 5.314 6.3522 4.87 6.6482C3.838 7.3362 2.565 7.33719 1.579 6.68019L0.588 6.0202C0.22 5.7762 0 5.3652 0 4.9212C0 2.8692 1.669 1.2002 3.721 1.2002H12.279C14.331 1.2002 16 2.8692 16 4.9212C16 5.3642 15.78 5.7752 15.412 6.0202L14.421 6.68019C13.929 7.00819 13.364 7.17319 12.8 7.17319ZM1.605 4.7752L2.467 5.3492C2.912 5.6472 3.489 5.6472 3.934 5.3492C4.966 4.6622 6.235 4.66219 7.218 5.31719C7.711 5.6452 8.287 5.6462 8.734 5.3492C9.766 4.6622 11.036 4.66219 12.018 5.31719C12.51 5.6452 13.087 5.6462 13.534 5.3492L14.396 4.7752C14.32 3.6732 13.4 2.8002 12.28 2.8002H3.722C2.602 2.8002 1.681 3.6732 1.606 4.7752H1.605ZM14.526 4.6882C14.525 4.6882 14.525 4.6882 14.525 4.6882C14.525 4.6882 14.525 4.6882 14.526 4.6882Z" fill="#1D1B20"/>
</g>
<defs>
<clipPath id="clip0_3906_1854">
<rect width="16" height="16" fill="white"/>
</clipPath>
</defs>
</svg>
