<svg width="20" height="20" viewBox="0 0 20 20" fill="none" xmlns="http://www.w3.org/2000/svg">
<path d="M16.25 6.25C16.25 2.8 13.45 0 10 0C6.55 0 3.75 2.8 3.75 6.25C3.75 8.15 4.5975 9.8525 5.9375 11C3.15 12.4625 1.25 15.3825 1.25 18.75C1.25 19.44 1.81 20 2.5 20C3.19 20 3.75 19.44 3.75 18.75C3.75 15.3 6.55 12.5 10 12.5C13.45 12.5 16.25 15.3 16.25 18.75C16.25 19.44 16.81 20 17.5 20C18.19 20 18.75 19.44 18.75 18.75C18.75 15.3837 16.85 12.4625 14.0625 11C15.4037 9.85 16.25 8.15 16.25 6.25V6.25ZM10 10C7.92875 10 6.25 8.32125 6.25 6.25C6.25 4.17875 7.92875 2.5 10 2.5C12.0712 2.5 13.75 4.17875 13.75 6.25C13.75 8.32125 12.0712 10 10 10Z" fill="#24213B"/>
</svg>
